<svg width="30" height="22" viewBox="0 0 30 22" fill="none" xmlns="http://www.w3.org/2000/svg">
<path d="M13.8046 16.2184C13.8046 17.8203 13.162 19.1968 11.8766 20.3481C10.6427 21.4494 9.07455 22 7.17224 22C4.96144 22 3.21337 21.2491 1.92802 19.7474C0.642674 18.2457 0 16.4687 0 14.4164C0 9.76109 1.31105 6.25711 3.93316 3.90444C6.55527 1.55176 9.46015 0.250284 12.6478 0V5.1058C11.1054 5.25597 9.6401 5.85665 8.25193 6.90785C6.91517 7.95904 6.19537 9.28555 6.09255 10.8874C6.60668 10.6371 7.17224 10.5119 7.7892 10.5119C9.69152 10.5119 11.1568 11.0375 12.1851 12.0887C13.2648 13.1399 13.8046 14.5165 13.8046 16.2184ZM30 16.2184C30 17.8203 29.3573 19.1968 28.072 20.3481C26.838 21.4494 25.2699 22 23.3676 22C21.1568 22 19.4087 21.2491 18.1234 19.7474C16.8895 18.2457 16.2725 16.4687 16.2725 14.4164C16.2725 9.76109 17.5578 6.25711 20.1285 3.90444C22.7506 1.55176 25.6555 0.250284 28.8432 0V5.1058C27.3008 5.25597 25.8355 5.85665 24.4473 6.90785C23.1105 7.95904 22.3907 9.28555 22.2879 10.8874C22.8021 10.6371 23.3676 10.5119 23.9846 10.5119C25.8869 10.5119 27.3522 11.0375 28.3805 12.0887C29.4602 13.1399 30 14.5165 30 16.2184Z" fill="#D5A15B"/>
</svg>
