<svg width="216" height="230" viewBox="0 0 216 230" fill="none" xmlns="http://www.w3.org/2000/svg">
<path d="M179.15 87.4771L40.5762 151.754L76.7635 229.77L215.337 165.492L179.15 87.4771Z" fill="#C5C8C6"/>
<path d="M53.6752 128.888L151.609 83.4618L179.15 87.4771L40.5761 151.754L53.6752 128.888Z" fill="#A2A9A4"/>
<path d="M23.0312 97.4203L53.6752 128.888L151.609 83.4617L147.683 39.6007L23.0312 97.4203Z" fill="#849087"/>
<path d="M18.8506 104.917L26.7586 101.249L53.675 128.888L51.6971 132.33L18.8506 104.917Z" fill="#A2A9A4"/>
<path d="M157.425 40.6396L148.164 44.9353L151.609 83.4614L157.636 84.3356L157.425 40.6396Z" fill="#A2A9A4"/>
<path d="M150.781 26.3166L12.207 90.5939L18.851 104.917L157.424 40.6401L150.781 26.3166Z" fill="#C5C8C6"/>
<path d="M88.3979 55.2528L70.7227 63.4514L77.3666 77.7749L95.0418 69.5762L88.3979 55.2528Z" fill="#E3E4E3"/>
<path d="M116.767 116.413L99.0918 124.612L135.279 202.627L152.954 194.429L116.767 116.413Z" fill="#E3E4E3"/>
<g opacity="0.2">
<path d="M89.1482 54.9048L88.4062 55.2489L95.0502 69.5724L95.7921 69.2282L89.1482 54.9048Z" fill="#849087"/>
</g>
<g opacity="0.2">
<path d="M117.517 116.065L116.775 116.409L152.963 194.425L153.705 194.08L117.517 116.065Z" fill="#849087"/>
</g>
<path opacity="0.2" d="M55.0753 131.909L153.009 86.4821L172.847 90.4005L46.8774 148.831L55.0753 131.909Z" fill="#849087"/>
<mask id="mask0_845_29104" style="mask-type:luminance" maskUnits="userSpaceOnUse" x="35" y="21" width="84" height="54">
<path d="M46.9369 74.4842L118.807 41.1472L114.425 26.7609L92.5738 21.337L35.5479 49.931L39.4767 74.0414L46.9369 74.4842Z" fill="white"/>
</mask>
<g mask="url(#mask0_845_29104)">
<path opacity="0.5" d="M43.8143 64.2971C43.8143 64.2971 42.0505 68.6578 46.7903 70.1185C51.5389 71.5751 67.6594 66.7705 76.3595 61.9288C85.0596 57.0872 54.9215 58.6996 54.9215 58.6996L43.8143 64.2971Z" fill="#849087"/>
<path d="M42.8786 50.7094C41.7326 51.3258 40.7792 52.1286 40.2705 53.1813C39.2571 55.2954 40.8378 57.4684 40.471 59.6961C40.0837 62.0395 39.349 64.0455 39.84 66.3846C39.998 67.1598 40.2683 67.9253 40.8419 68.476C41.4323 69.04 42.285 69.3233 43.1268 69.5374C44.3148 69.8349 45.5402 70.0301 46.7816 70.1225C46.0818 69.6198 46.0039 68.6059 46.4069 67.7826C47.1252 66.3357 48.6885 65.7273 50.1732 65.1553C52.8466 64.1274 55.6538 63.5253 58.46 63.1039C59.5799 62.9345 60.6945 62.7993 61.8153 62.7461C65.4748 62.5866 68.9816 63.3783 72.6014 63.5447C74.6821 63.6402 76.8518 63.493 78.9231 62.8822C81.0334 62.264 82.5749 60.7853 84.6356 60.2431C80.7728 58.0892 76.9059 55.9267 73.0518 53.7688C70.8621 52.5465 61.5409 49.2122 59.0666 48.8856C55.666 48.4372 52.1114 48.2511 48.5879 48.9096C46.9213 49.2266 44.6764 49.7376 42.8786 50.7094Z" fill="#E3E4E3"/>
<path opacity="0.5" d="M108.962 34.0781C108.962 34.0781 113.431 35.548 111.485 40.11C109.53 44.6761 95.4496 53.8799 86.1341 57.3948C76.8186 60.9097 97.5152 38.9424 97.5152 38.9424L108.962 34.0781Z" fill="#849087"/>
<path d="M99.1937 24.5875C100.404 24.1108 101.633 23.9015 102.765 24.193C105.034 24.7847 105.672 27.395 107.61 28.5539C109.649 29.7717 111.655 30.5064 113.123 32.392C113.613 33.0134 114.023 33.7142 114.073 34.5077C114.122 35.3228 113.788 36.1567 113.407 36.9376C112.867 38.0367 112.225 39.0984 111.494 40.1058C111.562 39.2468 110.838 38.5325 109.949 38.3084C108.381 37.9223 106.906 38.7228 105.511 39.4869C102.999 40.8639 100.727 42.6181 98.5925 44.4884C97.7398 45.2339 96.9167 45.9976 96.1522 46.8189C93.6668 49.5097 92.0063 52.6982 89.7954 55.5692C88.5244 57.2194 87.0107 58.7807 85.2065 59.9675C83.3716 61.1793 81.2471 61.4011 79.5022 62.6241C80.3527 58.284 81.1993 53.9351 82.0411 49.599C82.5223 47.1378 85.9971 37.8681 87.3459 35.7682C89.1998 32.8824 91.3536 30.0485 94.1321 27.7839C95.4506 26.7162 97.2994 25.3283 99.1937 24.5875Z" fill="#E3E4E3"/>
</g>
</svg>
